<mxfile host="app.diagrams.net" modified="2023-10-13T09:48:06.027Z" agent="Mozilla/5.0 (Windows NT 10.0; Win64; x64) AppleWebKit/537.36 (KHTML, like Gecko) Chrome/117.0.0.0 Safari/537.36 Edg/117.0.2045.60" version="22.0.4" etag="bfScSHd4xX0tpuW-f_uW" type="github">
  <diagram name="Page-1" id="9i_MfQaXdO_Qk7cfiM62">
    <mxGraphModel>
      <root>
        <mxCell id="0" />
        <mxCell id="1" parent="0" />
      </root>
    </mxGraphModel>
  </diagram>
</mxfile>
